<svg xmlns="http://www.w3.org/2000/svg" xmlns:xlink="http://www.w3.org/1999/xlink" width="500" zoomAndPan="magnify" viewBox="0 0 375 374.999991" height="500" preserveAspectRatio="xMidYMid meet" version="1.0"><defs><clipPath id="a84e02ff7a"><path d="M 84.898438 26.554688 L 290.398438 26.554688 L 290.398438 348.304688 L 84.898438 348.304688 Z M 84.898438 26.554688 " clip-rule="nonzero"/></clipPath></defs><g clip-path="url(#a84e02ff7a)"><path fill="#00ffba" d="M 213.832031 128.09375 L 213.832031 246.652344 L 197.671875 255.964844 L 161.464844 276.859375 L 113.925781 304.242188 L 161.464844 331.621094 L 190.394531 348.304688 L 213.832031 334.835938 L 274.140625 300.027344 L 290.355469 290.714844 L 290.355469 221.210938 L 274.140625 211.898438 L 230.933594 186.957031 L 273.472656 162.460938 L 290.355469 152.761719 L 290.355469 84.03125 L 265.308594 69.621094 L 213.832031 39.96875 L 190.617188 26.554688 L 161.464844 43.347656 L 114.09375 70.617188 L 84.9375 87.414062 L 84.9375 261.730469 L 146.304688 226.367188 L 161.464844 217.609375 L 161.464844 97.886719 L 188.839844 113.683594 Z M 213.832031 128.09375 " fill-opacity="1" fill-rule="evenodd"/></g></svg>