<svg width="30" height="30" viewBox="0 0 30 30" fill="none" xmlns="http://www.w3.org/2000/svg">
<g clip-path="url(#clip0_6_39)">
<path d="M29.3046 0L16.4319 10.1599L18.8257 4.17238L29.3046 0Z" fill="#E17726"/>
<path d="M0.72551 0.0119934L11.1764 4.17312L13.4494 10.2391L0.72551 0.0119934ZM24.1242 21.6072L29.8138 21.7227L27.8254 28.928L20.8828 26.8891L24.1242 21.6072ZM5.87567 21.6072L9.105 26.8891L2.17418 28.9281L0.197815 21.7227L5.87567 21.6072Z" fill="#E27625"/>
<path d="M13.1403 8.69399L13.3728 16.7044L6.41528 16.3667L8.39435 13.182L8.41942 13.1514L13.1403 8.69399ZM16.7875 8.60461L21.5805 13.1516L21.6054 13.1821L23.5844 16.3669L16.6284 16.7044L16.7875 8.60461ZM9.30876 21.6305L13.1077 24.7879L8.6947 27.0605L9.30876 21.6305ZM20.6919 21.63L21.2932 27.0606L16.8924 24.7876L20.6919 21.63Z" fill="#E27625"/>
<path d="M16.9896 24.4903L21.4553 26.7968L17.3013 28.9025L17.3444 27.5108L16.9896 24.4903ZM13.0091 24.4913L12.6682 27.488L12.6962 28.9009L8.53253 26.7968L13.0091 24.4913Z" fill="#D5BFB2"/>
<path d="M11.7196 17.7499L12.8865 20.3659L8.91351 19.1244L11.7196 17.7499ZM18.2803 17.7501L21.0996 19.1244L17.1136 20.3655L18.2803 17.7501Z" fill="#233447"/>
<path d="M9.61241 21.6037L8.97022 27.2337L5.52808 21.7269L9.61241 21.6037ZM20.3878 21.6039L24.4723 21.7269L21.0172 27.234L20.3878 21.6039ZM23.685 16.0484L20.7125 19.2797L18.4207 18.1626L17.3235 20.6231L16.6042 16.392L23.685 16.0484ZM6.31347 16.0484L13.3957 16.392L12.6763 20.6231L11.5788 18.163L9.29917 19.2799L6.31347 16.0484Z" fill="#CC6228"/>
<path d="M6.11322 15.3853L9.47627 19.0254L9.59275 22.619L6.11322 15.3853ZM23.8902 15.3788L20.4044 22.6254L20.5356 19.0254L23.8902 15.3788ZM13.2313 15.607L13.3667 16.5158L13.7011 18.7796L13.4861 25.7328L12.4695 20.1471L12.4691 20.0894L13.2313 15.607ZM16.767 15.5944L17.5311 20.0894L17.5308 20.1471L16.5116 25.7468L16.4713 24.3461L16.3123 18.7384L16.767 15.5944Z" fill="#E27525"/>
<path d="M20.8346 18.8807L20.7208 22.003L17.173 24.9514L16.4558 24.4109L17.2597 19.994L20.8346 18.8807ZM9.1778 18.8807L12.7402 19.994L13.5441 24.4109L12.8269 24.9514L9.27905 22.0027L9.1778 18.8807Z" fill="#F5841F"/>
<path d="M7.8537 26.1072L12.3926 28.4012L12.3734 27.4216L12.7532 27.066H17.2455L17.639 27.4204L17.6099 28.3992L22.1201 26.113L19.9254 28.0475L17.2717 29.9916H12.7167L10.0648 28.0395L7.8537 26.1072Z" fill="#C0AC9D"/>
<path d="M16.6645 24.1849L17.3063 24.6685L17.6823 27.869L17.1381 27.3789H12.8636L12.3297 27.8789L12.6934 24.6688L13.3354 24.1849H16.6645Z" fill="#161616"/>
<path d="M28.4548 0.28125L30 5.22588L29.035 10.2255L29.7221 10.7909L28.7923 11.5476L29.4912 12.1234L28.5657 13.0223L29.1339 13.4611L27.6261 15.3394L21.4422 13.4188L21.3886 13.3881L16.9323 9.37838L28.4548 0.28125ZM1.54523 0.28125L13.0678 9.37838L8.61141 13.3881L8.55785 13.4188L2.37387 15.3394L0.866133 13.4611L1.43379 13.0226L0.508945 12.1234L1.20645 11.5483L0.262617 10.7894L0.975703 10.2236L0 5.22613L1.54523 0.28125Z" fill="#763E1A"/>
<path d="M21.1397 12.9988L27.692 15.0336L29.8207 22.0319H24.2046L20.3351 22.0839L23.1493 16.2329L21.1397 12.9988ZM8.86034 12.9988L6.85046 16.2329L9.66495 22.0839L5.79718 22.0319H0.191162L2.30792 15.0338L8.86034 12.9988ZM19.1466 4.13901L17.3139 9.41888L16.925 16.5514L16.7761 18.787L16.7643 24.498H13.2357L13.2242 18.7978L13.0749 16.5495L12.6858 9.41888L10.8534 4.13901H19.1466Z" fill="#F5841F"/>
</g>
<defs>
<clipPath id="clip0_6_39">
<rect width="30" height="30" fill="white"/>
</clipPath>
</defs>
</svg>
