<svg width="315" height="292" viewBox="0 0 315 292" fill="none" xmlns="http://www.w3.org/2000/svg">
<path d="M45 40.8685H270C272.628 40.8672 275.254 41.0403 277.861 41.3868C276.977 34.9463 274.847 28.7582 271.597 23.1958C268.348 17.6333 264.047 12.8117 258.955 9.02155C253.862 5.23143 248.083 2.55132 241.966 1.14282C235.849 -0.265676 229.52 -0.373392 223.362 0.826168L38.3203 33.6266H38.1094C26.4943 35.9327 16.1653 42.7558 9.23203 52.7023C19.6776 44.9883 32.1816 40.8513 45 40.8685ZM270 58.3893H45C33.0693 58.4028 21.6309 63.3297 13.1946 72.0888C4.75827 80.848 0.0130279 92.7241 0 105.111V245.278C0.0130279 257.665 4.75827 269.541 13.1946 278.3C21.6309 287.06 33.0693 291.986 45 292H270C281.931 291.986 293.369 287.06 301.805 278.3C310.242 269.541 314.987 257.665 315 245.278V105.111C314.987 92.7241 310.242 80.848 301.805 72.0888C293.369 63.3297 281.931 58.4028 270 58.3893ZM236.602 198.556C232.151 198.556 227.801 197.186 224.101 194.619C220.401 192.052 217.517 188.403 215.814 184.135C214.111 179.866 213.666 175.169 214.534 170.637C215.402 166.106 217.545 161.943 220.692 158.676C223.838 155.409 227.847 153.184 232.212 152.282C236.577 151.381 241.101 151.844 245.212 153.612C249.323 155.38 252.837 158.374 255.31 162.216C257.782 166.058 259.102 170.574 259.102 175.195C259.102 181.39 256.731 187.332 252.511 191.713C248.292 196.094 242.569 198.556 236.602 198.556Z" fill="url(#paint0_linear_40_3)"/>
<defs>
<linearGradient id="paint0_linear_40_3" x1="157.5" y1="0" x2="157.5" y2="292" gradientUnits="userSpaceOnUse">
<stop stop-color="#5047ED"/>
<stop offset="1" stop-color="#4ECAB4"/>
</linearGradient>
</defs>
</svg>
